<svg width="100" height="100" viewBox="0 0 100 100" fill="none" xmlns="http://www.w3.org/2000/svg">
<rect width="100" height="100" rx="24" fill="black"/>
<path d="M58.5 26.5001C58.5 31.1945 54.6944 35.0001 50 35.0001C45.3056 35.0001 41.5 31.1945 41.5 26.5001C41.5 21.8057 45.3056 18.0001 50 18.0001C54.6944 18.0001 58.5 21.8057 58.5 26.5001Z" fill="white"/>
<path d="M74.6016 45.6112C70.5361 47.9584 65.3376 46.5655 62.9904 42.5C60.6432 38.4345 62.0361 33.236 66.1016 30.8888C70.1671 28.5416 75.3656 29.9345 77.7128 34C80.06 38.0655 78.6671 43.264 74.6016 45.6112Z" fill="white"/>
<path d="M22.2872 66C24.6344 70.0655 29.8329 71.4584 33.8984 69.1112C37.9639 66.764 39.3568 61.5655 37.0096 57.5C34.6624 53.4345 29.4639 52.0416 25.3984 54.3888C21.3329 56.736 19.94 61.9345 22.2872 66Z" fill="white"/>
<path d="M74.6016 54.389C70.5361 52.0418 65.3376 53.4347 62.9904 57.5002C60.6432 61.5657 62.0361 66.7642 66.1016 69.1115C70.1671 71.4587 75.3656 70.0657 77.7128 66.0002C80.06 61.9347 78.6671 56.7362 74.6016 54.389Z" fill="white"/>
<path d="M33.8984 30.8889C29.8329 28.5417 24.6344 29.9346 22.2872 34.0001C19.94 38.0656 21.3329 43.2641 25.3984 45.6113C28.0051 47.1163 31.0777 47.0836 33.5658 45.7948C35.2944 44.8993 37.4066 44.4092 39.0926 45.3826L39.6704 45.7162C40.9611 46.4614 41.5 48.0096 41.5 49.5C41.5 52.3974 42.9498 54.9563 45.1634 56.4907C46.6877 57.5473 48.0372 59.0823 48.0372 60.9369V62.063C48.0372 63.9177 46.6877 65.4526 45.1634 66.5092C42.9498 68.0436 41.5 70.6025 41.5 73.5C41.5 78.1944 45.3056 82 50 82C54.6944 82 58.5 78.1944 58.5 73.5C58.5 70.6194 57.0671 68.0735 54.8752 66.5362C53.3679 65.4789 52.0372 63.9514 52.0372 62.1103V60.8896C52.0372 59.0485 53.3679 57.521 54.8752 56.4638C57.0671 54.9264 58.5 52.3805 58.5 49.5C58.5 44.8055 54.6944 41 50 41C48.7319 41 47.5287 41.2777 46.4478 41.7756C44.789 42.5396 42.8198 42.9157 41.2382 42.0026L40.4911 41.5712C38.977 40.697 38.3025 38.9158 38.0814 37.1815C37.7572 34.6379 36.2904 32.2699 33.8984 30.8889Z" fill="white"/>
</svg>
